<svg xmlns="http://www.w3.org/2000/svg" width="960" height="560"><path fill="#9E997E" d="M55.905 84.574l-9.603 9.604c-5.242 5.242-11.625 7.862-19.15 7.862s-13.909-2.621-19.15-7.862c-5.316-5.316-7.984-11.709-8.002-19.178-.019-7.469 2.63-13.861 7.946-19.178 5.279-5.279 11.672-7.928 19.178-7.946 7.506-.019 13.899 2.611 19.178 7.89l9.604 9.604 9.546-9.547-9.603-9.603c-5.279-5.279-7.891-11.691-7.833-19.235.056-7.543 2.667-13.899 7.833-19.065 5.279-5.28 11.681-7.919 19.206-7.92 7.525 0 13.908 2.621 19.15 7.863 5.204 5.205 7.834 11.578 7.891 19.121.056 7.544-2.574 13.974-7.891 19.291l-9.547 9.547 9.547 9.547 9.603-9.604c5.28-5.278 11.672-7.908 19.178-7.89 7.508.019 13.899 2.668 19.179 7.947 5.166 5.167 7.778 11.521 7.834 19.066.056 7.543-2.556 13.956-7.834 19.234-5.279 5.278-11.671 7.927-19.179 7.946-7.506.019-13.898-2.611-19.178-7.891l-9.603-9.603-9.547 9.547 9.603 9.603c5.317 5.317 7.965 11.709 7.947 19.179-.019 7.469-2.687 13.861-8.003 19.178-5.279 5.279-11.663 7.919-19.15 7.919s-13.871-2.64-19.15-7.918c-5.316-5.317-7.984-11.709-8.002-19.178-.019-7.469 2.63-13.862 7.946-19.178l9.603-9.603-9.547-9.549zm-9.603-9.602l-9.603-9.604c-2.658-2.658-5.85-3.978-9.575-3.959-3.725.019-6.917 1.357-9.575 4.016-2.658 2.658-3.978 5.85-3.958 9.575.018 3.725 1.338 6.897 3.958 9.519 2.621 2.621 5.812 3.94 9.575 3.959 3.763.018 6.954-1.283 9.575-3.903l9.603-9.603zm28.753 28.753l-9.603 9.603c-2.621 2.621-3.912 5.822-3.875 9.603.038 3.782 1.348 6.964 3.931 9.547 2.621 2.62 5.812 3.922 9.574 3.903 3.764-.019 6.936-1.319 9.52-3.902 2.658-2.659 3.997-5.852 4.015-9.576.02-3.726-1.301-6.918-3.958-9.576l-9.604-9.602zm0-19.206l9.547-9.547-9.547-9.547-9.547 9.547 9.547 9.547zm0-38.3l9.603-9.604c2.696-2.696 4.016-5.906 3.959-9.632-.056-3.725-1.395-6.897-4.016-9.518s-5.804-3.932-9.547-3.931c-3.743 0-6.926 1.31-9.547 3.931-2.621 2.622-3.94 5.813-3.959 9.576-.02 3.762 1.282 6.954 3.903 9.575l9.604 9.603zm28.753 28.753l9.603 9.603c2.621 2.62 5.814 3.921 9.575 3.902 3.764-.019 6.955-1.338 9.576-3.958 2.621-2.622 3.921-5.812 3.902-9.576-.018-3.763-1.32-6.936-3.903-9.518-2.658-2.658-5.858-3.987-9.602-3.987-3.745 0-6.926 1.31-9.547 3.931l-9.604 9.603z"/><path fill="#9E997E" d="M75.055 112.828l-4.869 4.87c-1.329 1.329-1.985 2.953-1.966 4.87.02 1.918.684 3.531 1.994 4.842 1.329 1.328 2.948 1.989 4.855 1.979 1.908-.009 3.517-.669 4.827-1.978 1.348-1.349 2.027-2.968 2.036-4.856.01-1.889-.659-3.508-2.006-4.856l-4.871-4.871z"/><path fill="#9E997E" d="M75.055 37.117l4.87-4.87c1.329-1.329 1.983-2.952 1.965-4.87-.02-1.917-.683-3.531-1.993-4.841-1.33-1.329-2.948-1.989-4.856-1.979-1.907.01-3.517.669-4.827 1.979-1.348 1.349-2.027 2.967-2.035 4.856-.011 1.889.659 3.507 2.006 4.855l4.87 4.87z"/><path fill="#9E997E" d="M112.91 74.972l4.87 4.869c1.329 1.329 2.953 1.984 4.87 1.965 1.917-.02 3.531-.684 4.842-1.994 1.328-1.328 1.989-2.947 1.979-4.855-.009-1.907-.669-3.517-1.978-4.827-1.349-1.349-2.968-2.027-4.856-2.036-1.889-.011-3.508.659-4.856 2.007l-4.871 4.871z"/><path fill="#9E997E" d="M37.2 74.972l-4.87-4.87c-1.33-1.33-2.953-1.984-4.87-1.965-1.918.02-3.531.684-4.842 1.994-1.328 1.328-1.989 2.947-1.979 4.855.01 1.907.669 3.516 1.978 4.827 1.349 1.349 2.968 2.027 4.856 2.036 1.889.01 3.508-.66 4.856-2.007l4.871-4.87z"/></svg>